<?xml version="1.0" standalone="no"?>
<!DOCTYPE svg PUBLIC "-//W3C//DTD SVG 20010904//EN"
 "http://www.w3.org/TR/2001/REC-SVG-20010904/DTD/svg10.dtd">
<svg version="1.0" xmlns="http://www.w3.org/2000/svg"
 width="120.000000pt" height="120.000000pt" viewBox="0 0 1200.000000 1200.000000"
 preserveAspectRatio="xMidYMid meet">

<g transform="translate(0.000000,1200.000000) scale(0.100000,-0.100000)"
fill="red" stroke="none">
<path d="M3150 8919 c-212 -17 -425 -57 -642 -121 -87 -25 -108 -35 -108 -50
0 -22 -7 -22 121 -2 142 23 444 23 604 0 153 -21 348 -68 495 -118 417 -141
891 -488 1274 -933 319 -371 1137 -1440 1706 -2230 435 -604 629 -857 849
-1107 114 -130 395 -409 430 -428 l21 -11 0 2011 0 2010 -275 0 -275 0 0
-1010 c0 -555 -3 -1010 -7 -1010 -10 0 -15 6 -313 400 -421 556 -630 827 -762
990 -134 165 -369 431 -502 568 -45 46 -84 90 -89 97 -14 25 -288 275 -369
336 -415 317 -955 527 -1527 594 -160 20 -482 27 -631 14z"/>
<path d="M4102 6023 l3 -2008 273 -3 272 -2 0 1010 c0 555 4 1010 8 1010 11 0
35 -31 401 -515 348 -460 533 -701 650 -845 288 -355 712 -806 921 -980 174
-145 410 -288 641 -389 701 -306 1510 -360 2219 -147 87 26 106 35 108 52 3
21 2 21 -65 7 -96 -20 -473 -29 -604 -14 -381 44 -734 167 -1039 365 -396 257
-658 518 -1146 1136 -341 433 -991 1297 -1341 1783 -516 717 -726 984 -997
1267 -102 107 -286 280 -298 280 -5 0 -7 -903 -6 -2007z"/>
</g>
</svg>
